# Blender 4.0.2
# www.blender.org
mtllib tree_3.mtl
o Cone
v -0.336919 7.003072 -0.944785
v 0.792279 7.004744 -0.617867
v 0.830313 6.999878 0.557078
v -0.275378 6.995198 0.956315
v -0.996767 6.997171 0.028113
v -0.002706 8.999988 0.004229
vn 0.2568 0.3794 -0.8889
vn 0.9255 0.3776 -0.0284
vn 0.3138 0.3722 0.8735
vn 0.0027 -1.0000 -0.0042
vn -0.7330 0.3706 0.5704
vn -0.7682 0.3751 -0.5188
vt 0.250000 0.490000
vt 0.250000 0.250000
vt 0.478254 0.324164
vt 0.391068 0.055836
vt 0.108932 0.055836
vt 0.750000 0.490000
vt 0.978254 0.324164
vt 0.891068 0.055836
vt 0.608932 0.055836
vt 0.521746 0.324164
vt 0.021746 0.324164
s 0
usemtl Material.002
f 1/1/1 6/2/1 2/3/1
f 2/3/2 6/2/2 3/4/2
f 3/4/3 6/2/3 4/5/3
f 1/6/4 2/7/4 3/8/4 4/9/4 5/10/4
f 4/5/5 6/2/5 5/11/5
f 5/11/6 6/2/6 1/1/6
o Cone.001
v 0.000000 5.527583 -1.472417
v 1.275150 5.527583 -0.736208
v 1.275150 5.527583 0.736208
v 0.000000 5.527583 1.472417
v -1.275150 5.527583 0.736208
v -1.275150 5.527583 -0.736208
v 0.000000 8.472417 0.000000
vn 0.4588 0.3974 -0.7947
vn 0.9177 0.3974 -0.0000
vn 0.4588 0.3974 0.7947
vn -0.4588 0.3974 0.7947
vn -0.0000 -1.0000 -0.0000
vn -0.9177 0.3974 -0.0000
vn -0.4588 0.3974 -0.7947
vt 0.250000 0.490000
vt 0.250000 0.250000
vt 0.457846 0.370000
vt 0.457846 0.130000
vt 0.250000 0.010000
vt 0.042154 0.130000
vt 0.750000 0.490000
vt 0.957846 0.370000
vt 0.957846 0.130000
vt 0.750000 0.010000
vt 0.542154 0.130000
vt 0.542154 0.370000
vt 0.042154 0.370000
s 0
usemtl Material.002
f 7/12/7 13/13/7 8/14/7
f 8/14/8 13/13/8 9/15/8
f 9/15/9 13/13/9 10/16/9
f 10/16/10 13/13/10 11/17/10
f 7/18/11 8/19/11 9/20/11 10/21/11 11/22/11 12/23/11
f 11/17/12 13/13/12 12/24/12
f 12/24/13 13/13/13 7/12/13
o Cone.002
v -0.405564 4.141962 -1.833795
v 1.173790 4.143752 -1.468385
v 1.872827 4.136648 -0.005789
v 1.165157 4.125999 1.452627
v -0.416330 4.119824 1.808647
v -1.680741 4.122773 0.794180
v -1.675950 4.132626 -0.826859
v -0.004741 7.868059 0.011339
vn 0.2045 0.4166 -0.8858
vn 0.8216 0.4152 -0.3907
vn 0.8192 0.4104 0.4005
vn 0.1992 0.4058 0.8920
vn -0.5716 0.4050 0.7136
vn 0.0025 -1.0000 -0.0061
vn -0.9128 0.4084 -0.0002
vn -0.5674 0.4136 -0.7120
vt 0.250000 0.490000
vt 0.250000 0.250000
vt 0.437640 0.399638
vt 0.483983 0.196595
vt 0.354132 0.033767
vt 0.145868 0.033767
vt 0.016017 0.196595
vt 0.750000 0.490000
vt 0.937640 0.399638
vt 0.983983 0.196595
vt 0.854132 0.033767
vt 0.645868 0.033767
vt 0.516017 0.196595
vt 0.562360 0.399638
vt 0.062360 0.399638
s 0
usemtl Material.002
f 14/25/14 21/26/14 15/27/14
f 15/27/15 21/26/15 16/28/15
f 16/28/16 21/26/16 17/29/16
f 17/29/17 21/26/17 18/30/17
f 18/30/18 21/26/18 19/31/18
f 14/32/19 15/33/19 16/34/19 17/35/19 18/36/19 19/37/19 20/38/19
f 19/31/20 21/26/20 20/39/20
f 20/39/21 21/26/21 14/25/21
o Cone.003
v -0.071466 2.246644 -2.220307
v 1.498464 2.246644 -1.570021
v 2.148750 2.246644 -0.000091
v 1.498464 2.246644 1.569838
v -0.071466 2.246644 2.220125
v -1.641395 2.246644 1.569838
v -2.291682 2.246644 -0.000091
v -1.641395 2.246644 -1.570021
v -0.071466 6.687076 -0.000091
vn 0.3474 0.4194 -0.8387
vn 0.8387 0.4194 -0.3474
vn 0.8387 0.4194 0.3474
vn 0.3474 0.4194 0.8387
vn -0.3474 0.4194 0.8387
vn -0.8387 0.4194 0.3474
vn -0.0000 -1.0000 -0.0000
vn -0.8387 0.4194 -0.3474
vn -0.3474 0.4194 -0.8387
vt 0.250000 0.490000
vt 0.250000 0.250000
vt 0.419706 0.419706
vt 0.490000 0.250000
vt 0.419706 0.080294
vt 0.250000 0.010000
vt 0.080294 0.080294
vt 0.010000 0.250000
vt 0.750000 0.490000
vt 0.919706 0.419706
vt 0.990000 0.250000
vt 0.919706 0.080294
vt 0.750000 0.010000
vt 0.580294 0.080294
vt 0.510000 0.250000
vt 0.580294 0.419706
vt 0.080294 0.419706
s 0
usemtl Material.002
f 22/40/22 30/41/22 23/42/22
f 23/42/23 30/41/23 24/43/23
f 24/43/24 30/41/24 25/44/24
f 25/44/25 30/41/25 26/45/25
f 26/45/26 30/41/26 27/46/26
f 27/46/27 30/41/27 28/47/27
f 22/48/28 23/49/28 24/50/28 25/51/28 26/52/28 27/53/28 28/54/28 29/55/28
f 28/47/29 30/41/29 29/56/29
f 29/56/30 30/41/30 22/40/30
o Cube
v 0.472527 -0.447216 -0.135171
v 0.055811 -0.447216 0.524837
v -0.604076 -0.432257 0.108197
v -0.187360 -0.432257 -0.551811
v 0.881809 2.388306 -0.195697
v 0.796774 2.697510 0.187920
v 0.551391 3.008511 -0.117147
v 0.636425 2.699307 -0.500764
v 0.273449 2.101196 -0.054170
v 0.056882 2.280947 0.359096
v -0.316722 2.465754 0.082931
v -0.100155 2.286003 -0.330334
v 0.512691 2.180840 -0.110296
v 0.427656 2.490043 0.273321
v 0.182272 2.801044 -0.031745
v 0.267307 2.491840 -0.415363
v 0.432640 0.280823 -0.116047
v 0.055927 0.280823 0.480602
v -0.540612 0.294347 0.103959
v -0.163900 0.294347 -0.492690
v 0.402097 0.838323 -0.101402
v 0.056017 0.838324 0.446730
v -0.492015 0.850747 0.100713
v -0.145935 0.850747 -0.447419
v 0.374306 1.345579 -0.088078
v 0.056098 1.345579 0.415910
v -0.447797 1.357002 0.097760
v -0.129589 1.357002 -0.406227
v 0.348164 1.822732 -0.075544
v 0.056174 1.822732 0.386919
v -0.406203 1.833214 0.094983
v -0.114213 1.833214 -0.367480
vn -0.0162 -0.9998 -0.0102
vn 0.8545 0.4803 -0.1977
vn 0.4542 -0.6724 0.5845
vn -0.2135 0.6193 0.7556
vn -0.5233 0.6236 -0.5807
vn 0.1462 -0.6704 -0.7275
vn 0.4908 -0.6220 0.6101
vn -0.1701 0.6184 0.7672
vn -0.4908 0.6220 -0.6101
vn 0.1701 -0.6184 -0.7672
vn 0.8451 0.0323 0.5336
vn -0.5323 0.0514 0.8450
vn -0.8435 0.0706 -0.5325
vn 0.5340 0.0514 -0.8439
vn 0.8692 0.0916 0.4860
vn -0.5483 0.0758 0.8329
vn -0.8526 0.0932 -0.5142
vn 0.5763 0.1126 -0.8094
s 0
usemtl Material.006
f 31//31 32//31 33//31 34//31
f 38//32 37//32 36//32 35//32
f 43//33 44//33 40//33 39//33
f 44//34 45//34 41//34 40//34
f 45//35 46//35 42//35 41//35
f 46//36 43//36 39//36 42//36
f 35//37 36//37 44//37 43//37
f 36//38 37//38 45//38 44//38
f 37//39 38//39 46//39 45//39
f 38//40 35//40 43//40 46//40
f 47//41 48//41 32//41 31//41
f 48//42 49//42 33//42 32//42
f 49//43 50//43 34//43 33//43
f 50//44 47//44 31//44 34//44
f 51//41 52//41 48//41 47//41
f 52//42 53//42 49//42 48//42
f 53//43 54//43 50//43 49//43
f 54//44 51//44 47//44 50//44
f 55//41 56//41 52//41 51//41
f 56//42 57//42 53//42 52//42
f 57//43 58//43 54//43 53//43
f 58//44 55//44 51//44 54//44
f 59//41 60//41 56//41 55//41
f 60//42 61//42 57//42 56//42
f 61//43 62//43 58//43 57//43
f 62//44 59//44 55//44 58//44
f 39//45 40//45 60//45 59//45
f 40//46 41//46 61//46 60//46
f 41//47 42//47 62//47 61//47
f 42//48 39//48 59//48 62//48
